<svg xmlns="http://www.w3.org/2000/svg" width="69.906" height="34.333" viewBox="0 0 69.906 34.333">
  <g id="Group_93" data-name="Group 93" transform="translate(427.65 -1531.969)">
    <path id="Path_171" data-name="Path 171" d="M811.35,669.458l1.244-7.268h1.865l1.473,3.879,1.558-3.879h1.885l1.091,7.268H818.58l-.532-4.183-1.756,4.183h-.75l-1.681-4.183-.62,4.183Z" transform="translate(-1239 883.83)" fill="#12284c"/>
    <path id="Path_172" data-name="Path 172" d="M844.69,671.685h-3.63a1.231,1.231,0,0,0,.307.818.982.982,0,0,0,.719.239,1.363,1.363,0,0,0,.566-.13.818.818,0,0,0,.307-.341h1.667a2.192,2.192,0,0,1-.59,1,2.648,2.648,0,0,1-1.984.682,2.757,2.757,0,0,1-2.015-.74,2.549,2.549,0,0,1-.719-1.841,2.6,2.6,0,0,1,.729-1.889,2.727,2.727,0,0,1,1.994-.706,2.672,2.672,0,0,1,1.875.682,2.727,2.727,0,0,1,.774,2.045Zm-1.6-1a1.214,1.214,0,0,0-.283-.525,1.023,1.023,0,0,0-.719-.259.938.938,0,0,0-.709.259,1.023,1.023,0,0,0-.262.525Z" transform="translate(-1257.433 879.489)" fill="#12284c"/>
    <path id="Path_173" data-name="Path 173" d="M861.972,668.153H860.23v-.515a1.789,1.789,0,0,1-1.473.682,2.331,2.331,0,0,1-1.7-.682,2.686,2.686,0,0,1-.784-1.94,2.658,2.658,0,0,1,.794-1.929,2.5,2.5,0,0,1,1.722-.654,1.933,1.933,0,0,1,1.452.634V660.21h1.735Zm-2.045-1.612a1.176,1.176,0,0,0,.372-.828,1.272,1.272,0,0,0-.341-.784,1.118,1.118,0,0,0-1.571,0,1.2,1.2,0,0,0-.341.828,1.1,1.1,0,0,0,.341.76,1.081,1.081,0,0,0,.774.341,1.183,1.183,0,0,0,.74-.317Z" transform="translate(-1268.607 885.135)" fill="#12284c"/>
    <path id="Path_174" data-name="Path 174" d="M876.1,660.4a.978.978,0,1,1-.694.285A.982.982,0,0,1,876.1,660.4Zm.873,3.007v4.871h-1.745v-4.871Z" transform="translate(-1281.032 885.01)" fill="#12284c"/>
    <path id="Path_175" data-name="Path 175" d="M886.351,668.923h1.742v4.871h-1.742v-.515a1.824,1.824,0,0,1-1.517.682,2.342,2.342,0,0,1-1.756-.774,2.461,2.461,0,0,1-.682-1.786,2.69,2.69,0,0,1,.75-1.95,2.509,2.509,0,0,1,1.756-.682,1.926,1.926,0,0,1,1.449.624Zm-1.831,1.636a1.131,1.131,0,0,0-.341.794,1.115,1.115,0,0,0,.341.794,1.217,1.217,0,0,0,.784.341,1.118,1.118,0,0,0,.787-.341,1.061,1.061,0,0,0,.341-.784,1.085,1.085,0,0,0-.341-.794,1.118,1.118,0,0,0-.787-.317,1.1,1.1,0,0,0-.8.3Z" transform="translate(-1285.828 879.494)" fill="#12284c"/>
    <path id="Path_176" data-name="Path 176" d="M912.014,668.237h-2.638l-.491,1.22H906.89l2.792-7.268h2.045l2.727,7.268H912.44Zm-.5-1.438-.818-2.352L909.9,666.8Z" transform="translate(-1301.972 883.83)" fill="#12284c"/>
    <path id="Path_177" data-name="Path 177" d="M929.04,669.22l1.156,2.574,1.231-2.574h1.067l1.234,2.649,1.22-2.649h1.94l-2.55,4.871h-1.179l-1.22-2.679-1.166,2.679H929.6l-2.505-4.871Z" transform="translate(-1315.286 879.197)" fill="#12284c"/>
    <path id="Path_178" data-name="Path 178" d="M959.118,668.923h1.742v4.871h-1.742v-.515a1.824,1.824,0,0,1-1.517.682,2.332,2.332,0,0,1-1.752-.774,2.451,2.451,0,0,1-.682-1.786,2.689,2.689,0,0,1,.753-1.95,2.5,2.5,0,0,1,1.752-.682,1.919,1.919,0,0,1,1.462.634Zm-1.83,1.636a1.131,1.131,0,0,0-.341.794,1.115,1.115,0,0,0,.341.794,1.217,1.217,0,0,0,.787.341,1.118,1.118,0,0,0,.784-.341,1.05,1.05,0,0,0,.341-.784,1.07,1.07,0,0,0-.341-.794,1.118,1.118,0,0,0-.787-.317,1.1,1.1,0,0,0-.784.3Z" transform="translate(-1333.791 879.494)" fill="#12284c"/>
    <path id="Path_179" data-name="Path 179" d="M974.344,669.067h1.742v.8a1.6,1.6,0,0,1,.682-.682,1.918,1.918,0,0,1,.9-.194l.341.02v1.646a1.51,1.51,0,0,0-.75-.174,1.139,1.139,0,0,0-.8.263,1.476,1.476,0,0,0-.392,1.111v2.079H974.33Z" transform="translate(-1346.423 879.35)" fill="#12284c"/>
    <path id="Path_180" data-name="Path 180" d="M991.5,668.153H989.76v-.515a1.79,1.79,0,0,1-1.473.682,2.342,2.342,0,0,1-1.7-.682,2.686,2.686,0,0,1-.784-1.94,2.659,2.659,0,0,1,.794-1.929,2.506,2.506,0,0,1,1.725-.654,1.929,1.929,0,0,1,1.449.634V660.21h1.742Zm-2.045-1.612a1.176,1.176,0,0,0,.372-.828,1.272,1.272,0,0,0-.341-.784,1.115,1.115,0,0,0-1.568,0,1.186,1.186,0,0,0-.341.828,1.088,1.088,0,0,0,.341.76,1.07,1.07,0,0,0,.774.341,1.182,1.182,0,0,0,.75-.317Z" transform="translate(-1353.982 885.135)" fill="#12284c"/>
    <path id="Path_181" data-name="Path 181" d="M1004.564,672.188a2.551,2.551,0,0,0,.682.361,2.313,2.313,0,0,0,.682.119.74.74,0,0,0,.447-.133.276.276,0,0,0,.085-.228.263.263,0,0,0-.085-.218,1.131,1.131,0,0,0-.457-.174l-.46-.109a1.568,1.568,0,0,1-.849-.423,1.193,1.193,0,0,1-.3-.825,1.752,1.752,0,0,1,.457-1.186,2.465,2.465,0,0,1,1.745-.59,4.024,4.024,0,0,1,1.558.317l-.586,1.111a2.424,2.424,0,0,0-.917-.239.741.741,0,0,0-.4.1.263.263,0,0,0-.154.242.286.286,0,0,0,.208.273c.164.065.3.065.576.14l.317.089a2.046,2.046,0,0,1,.719.382,1.38,1.38,0,0,1,.372.968,1.629,1.629,0,0,1-.491,1.21,2.546,2.546,0,0,1-1.8.61,3.592,3.592,0,0,1-1.96-.566Z" transform="translate(-1365.946 879.488)" fill="#12284c"/>
    <path id="Path_182" data-name="Path 182" d="M867.236,626.549h-1.21l-1.916-5.089h1.565l.682,1.916c.051.14.1.293.153.457s.1.341.133.5h.02q.068-.256.143-.5l.143-.457.706-1.916h1.5Z" transform="translate(-1273.775 910.676)" fill="#676767"/>
    <path id="Path_183" data-name="Path 183" d="M883.426,623.682a2.657,2.657,0,0,1-.215,1.081,2.7,2.7,0,0,1-.579.849,2.557,2.557,0,0,1-.859.549,2.922,2.922,0,0,1-2.113,0,2.618,2.618,0,0,1-1.66-2.478,2.7,2.7,0,0,1,.215-1.084,2.634,2.634,0,0,1,.583-.852,2.6,2.6,0,0,1,.862-.552,2.97,2.97,0,0,1,2.113,0,2.517,2.517,0,0,1,.859.552,2.676,2.676,0,0,1,.794,1.936Zm-1.551,0a1.421,1.421,0,0,0-.1-.522,1.364,1.364,0,0,0-.252-.412,1.092,1.092,0,0,0-.368-.273,1.024,1.024,0,0,0-.443-.1,1.062,1.062,0,0,0-.443.1,1.022,1.022,0,0,0-.372.273,1.423,1.423,0,0,0-.245.412,1.361,1.361,0,0,0-.1.522,1.327,1.327,0,0,0,.1.515,1.388,1.388,0,0,0,.245.406,1.024,1.024,0,0,0,.372.266,1.061,1.061,0,0,0,.443.1,1.024,1.024,0,0,0,.443-.1,1.119,1.119,0,0,0,.368-.266,1.335,1.335,0,0,0,.252-.406,1.4,1.4,0,0,0,.1-.515Z" transform="translate(-1282.929 910.979)" fill="#676767"/>
    <path id="Path_184" data-name="Path 184" d="M896.46,626.148a7.5,7.5,0,0,1-1.145,2.113,2.874,2.874,0,0,1-1.541,1l-.661-1.057a3,3,0,0,0,.528-.242,1.989,1.989,0,0,0,.447-.341,3.035,3.035,0,0,0,.389-.528,5.087,5.087,0,0,0,.365-.747l-1.861-4.772h1.6l.74,1.97c.058.15.112.3.16.464s.1.341.147.518h.024c.044-.181.089-.341.136-.508s.1-.314.16-.464l.75-1.98h1.517Z" transform="translate(-1292.804 910.604)" fill="#676767"/>
    <path id="Path_185" data-name="Path 185" d="M911.609,626.351a1.258,1.258,0,0,1-1.057-.569,1.5,1.5,0,0,1-.62.43,2.25,2.25,0,0,1-1.483.027,1.7,1.7,0,0,1-.576-.341,1.511,1.511,0,0,1-.385-.525,1.677,1.677,0,0,1-.14-.682,1.446,1.446,0,0,1,.481-1.132,2.123,2.123,0,0,1,1.217-.508l.989-.1v-.177a.453.453,0,0,0-.181-.378.951.951,0,0,0-.6-.147,3.29,3.29,0,0,0-.825.1,2.334,2.334,0,0,0-.637.242l-.123-1.248a2.949,2.949,0,0,1,.75-.256,4.481,4.481,0,0,1,.924-.1,2.451,2.451,0,0,1,1.653.522,1.892,1.892,0,0,1,.6,1.507v1.445a.784.784,0,0,0,.153.518.657.657,0,0,0,.419.228Zm-1.531-2.362-.682.065a.635.635,0,0,0-.648.658.474.474,0,0,0,.147.341.532.532,0,0,0,.382.143.832.832,0,0,0,.545-.211.682.682,0,0,0,.245-.535Z" transform="translate(-1302.274 910.987)" fill="#676767"/>
    <path id="Path_186" data-name="Path 186" d="M925.178,627.016a1.536,1.536,0,0,1-.17.723,1.669,1.669,0,0,1-.484.58,2.34,2.34,0,0,1-.753.385,3.258,3.258,0,0,1-.978.14,3.154,3.154,0,0,1-.992-.15,2.419,2.419,0,0,1-.767-.409,1.82,1.82,0,0,1-.487-.607,1.618,1.618,0,0,1-.177-.75,1.5,1.5,0,0,1,.276-.92,1.336,1.336,0,0,1,.682-.5l-.573-.58a.822.822,0,0,1,.211-.453,1.631,1.631,0,0,1,.361-.307,1.751,1.751,0,0,1-.491-.539,1.5,1.5,0,0,1-.2-.774,2.008,2.008,0,0,1,.136-.757,1.637,1.637,0,0,1,.4-.6,1.916,1.916,0,0,1,.644-.392,2.517,2.517,0,0,1,.862-.136,2.4,2.4,0,0,1,.4.027,2.75,2.75,0,0,1,.341.072,2.748,2.748,0,0,0,.341.068,3.207,3.207,0,0,0,.375.021,2.151,2.151,0,0,0,.484-.051,1.458,1.458,0,0,0,.4-.126l.109,1.278a.423.423,0,0,1-.2.092,1,1,0,0,1-.279.021.9.9,0,0,1,.089.433,1.8,1.8,0,0,1-.123.682,1.658,1.658,0,0,1-.341.542,1.848,1.848,0,0,1-.515.378,1.974,1.974,0,0,1-.661.177.838.838,0,0,0-.256.055.154.154,0,0,0-.1.147c0,.075.044.126.133.157l.8.276a2.7,2.7,0,0,1,1.118.682A1.623,1.623,0,0,1,925.178,627.016Zm-1.452.021a.573.573,0,0,0-.143-.372.827.827,0,0,0-.406-.252l-.661-.187a.852.852,0,0,0-.535.218.647.647,0,0,0-.215.5.631.631,0,0,0,.249.5,1.1,1.1,0,0,0,.743.211,1.168,1.168,0,0,0,.719-.187A.542.542,0,0,0,923.726,627.037Zm-.341-4.254a.637.637,0,0,0-.2-.474.753.753,0,0,0-1.023,0,.658.658,0,0,0,0,.948.7.7,0,0,0,.5.194.709.709,0,0,0,.5-.194.617.617,0,0,0,.232-.474Z" transform="translate(-1310.855 911)" fill="#676767"/>
    <path id="Path_187" data-name="Path 187" d="M938.729,623.037a2.453,2.453,0,0,1-.055.5l-.651.648h-2.488a1.284,1.284,0,0,0,.153.341,1.136,1.136,0,0,0,.293.307,1.7,1.7,0,0,0,.436.225,1.777,1.777,0,0,0,.583.089,2.727,2.727,0,0,0,.774-.1,2.815,2.815,0,0,0,.682-.29l-.143,1.364a2.85,2.85,0,0,1-.624.2,3.986,3.986,0,0,1-.862.085,3.368,3.368,0,0,1-1.139-.191,2.7,2.7,0,0,1-.931-.545,2.535,2.535,0,0,1-.624-.859,2.684,2.684,0,0,1-.225-1.111,2.785,2.785,0,0,1,.208-1.1,2.538,2.538,0,0,1,.569-.835,2.445,2.445,0,0,1,.825-.528,2.691,2.691,0,0,1,1-.184,2.5,2.5,0,0,1,.937.167,2.137,2.137,0,0,1,.7.447,2.005,2.005,0,0,1,.443.637A1.923,1.923,0,0,1,938.729,623.037Zm-1.476,0a.763.763,0,0,0-.2-.528.7.7,0,0,0-.556-.228.961.961,0,0,0-.644.239,1.121,1.121,0,0,0-.368.627h1.762a.4.4,0,0,0,.01-.119Z" transform="translate(-1319.781 910.947)" fill="#676767"/>
    <path id="Path_188" data-name="Path 188" d="M951.652,622.6h-.133a1.889,1.889,0,0,0-.617.1,1.494,1.494,0,0,0-.528.307,1.438,1.438,0,0,0-.368.535,2.019,2.019,0,0,0-.136.784v1.994h-1.6v-5.045h1.476l.044.791a1.364,1.364,0,0,1,.682-.682,2.582,2.582,0,0,1,1.06-.2Z" transform="translate(-1329.246 910.856)" fill="#676767"/>
    <path id="Path_189" data-name="Path 189" d="M958.887,632.233a.535.535,0,0,1-.1.266,1.642,1.642,0,0,1-.242.3,1.547,1.547,0,0,1-.3.245.406.406,0,0,1-.539,0,1.547,1.547,0,0,1-.3-.245,1.64,1.64,0,0,1-.242-.3.535.535,0,0,1-.1-.266.545.545,0,0,1,.1-.269,1.773,1.773,0,0,1,.242-.3,1.844,1.844,0,0,1,.3-.245.416.416,0,0,1,.539,0,1.841,1.841,0,0,1,.3.245,1.764,1.764,0,0,1,.242.3A.544.544,0,0,1,958.887,632.233Z" transform="translate(-1335.04 904.178)" fill="#4cc7e9"/>
    <rect id="Rectangle_10" data-name="Rectangle 10" width="32.718" height="0.228" transform="translate(-409.27 1541.613)" fill="#4cc7e9"/>
    <path id="Path_191" data-name="Path 191" d="M882.893,702.068a1.366,1.366,0,0,0-.228-.44,1.6,1.6,0,0,0-.31-.3,2.546,2.546,0,0,0-.631-.341,4.186,4.186,0,0,0-.6-.157,9.928,9.928,0,0,0-2.226-.112c-.719.034-1.428.109-2.13.2l-.917.126c.341-.222.648-.45.965-.682.566-.419,1.122-.852,1.657-1.323a8.521,8.521,0,0,0,1.466-1.592,2.866,2.866,0,0,0,.28-.5,1.728,1.728,0,0,0,.15-.607,1.207,1.207,0,0,0-.15-.682,1.474,1.474,0,0,0-.433-.477,3.068,3.068,0,0,0-1.04-.518,4.01,4.01,0,0,0-1.135-.133,7.529,7.529,0,0,0-2.175.423c-.341.119-.682.249-1.023.4-.167.072-.341.143-.5.225l-.252.119-.262.136-.044.024a.622.622,0,0,0-.16.126.682.682,0,0,0,.975.934c.044-.044.113-.1.174-.153s.126-.106.191-.157c.133-.1.266-.2.4-.29a7.731,7.731,0,0,1,.859-.5,5.249,5.249,0,0,1,1.858-.573,2.943,2.943,0,0,1,.934.055,2.2,2.2,0,0,1,.828.419.682.682,0,0,1,.341.617,1.735,1.735,0,0,1-.341.808,5.225,5.225,0,0,1-.634.753,8.888,8.888,0,0,1-.746.682,20.07,20.07,0,0,1-1.65,1.224c-.845.569-1.7,1.094-2.611,1.6-.4.065-.787.136-1.179.215s-.682.143-1.043.228a10.5,10.5,0,0,0-1.06.31,3.124,3.124,0,0,0-.58.276l-.085.061-.092.078a.808.808,0,0,0-.2.3.77.77,0,0,0-.034.126.483.483,0,0,0,0,.14.707.707,0,0,0,.055.249v.058a.693.693,0,0,0,.055.082.6.6,0,0,0,.123.123.627.627,0,0,0,.208.106.886.886,0,0,0,.266.044,1.655,1.655,0,0,0,.187,0,2.171,2.171,0,0,0,.314-.044,4.515,4.515,0,0,0,.552-.136,8.307,8.307,0,0,0,1.023-.372l.259-.119c.085-.041.181-.1.256-.136l.457-.266.218-.133c.443-.072.89-.136,1.336-.194q1.023-.138,2.045-.256c.682-.078,1.363-.13,2.045-.147h.992a5.831,5.831,0,0,1,.937.109,2.536,2.536,0,0,1,.409.116,1.105,1.105,0,0,1,.293.15.6.6,0,0,1,.065.061.037.037,0,0,1,0,.024h0v.017h0v-.024a.651.651,0,1,0,1.142.624c.017-.027.021-.041.027-.051v-.034a.457.457,0,0,0,.024-.061.923.923,0,0,0,.038-.116,1.439,1.439,0,0,0,.041-.242A1.259,1.259,0,0,0,882.893,702.068ZM870.281,702.749Z" transform="translate(-1277.324 862.517)" fill="#4cc7e9"/>
    <path id="Path_193" data-name="Path 193" d="M917.535,702.068a1.316,1.316,0,0,0-.228-.44,1.506,1.506,0,0,0-.31-.3,2.488,2.488,0,0,0-.631-.341,4.176,4.176,0,0,0-.6-.157,9.906,9.906,0,0,0-2.226-.112c-.719.034-1.425.109-2.127.2l-.917.126c.341-.222.644-.45.965-.682.562-.419,1.121-.852,1.653-1.323a8.526,8.526,0,0,0,1.469-1.592,3.112,3.112,0,0,0,.28-.5,1.725,1.725,0,0,0,.15-.607,1.206,1.206,0,0,0-.15-.682,1.485,1.485,0,0,0-.436-.477,3.066,3.066,0,0,0-1.023-.518,4.037,4.037,0,0,0-1.135-.133,7.5,7.5,0,0,0-2.175.423c-.341.119-.682.249-1.023.4-.167.072-.341.143-.5.225l-.252.119-.262.136-.044.024a.623.623,0,0,0-.16.126.682.682,0,0,0,.978.934c.044-.044.112-.1.17-.153s.126-.106.194-.157c.129-.1.262-.2.4-.29a7.744,7.744,0,0,1,.859-.5,5.233,5.233,0,0,1,1.854-.573,2.966,2.966,0,0,1,.937.055,2.189,2.189,0,0,1,.828.382.682.682,0,0,1,.341.617,1.729,1.729,0,0,1-.341.808,5.72,5.72,0,0,1-.634.753,8.933,8.933,0,0,1-.75.682,18.968,18.968,0,0,1-1.65,1.224c-.845.569-1.7,1.094-2.611,1.6-.392.065-.784.136-1.179.215s-.682.143-1.043.228a10.443,10.443,0,0,0-1.057.31,3.029,3.029,0,0,0-.58.276l-.085.061a.947.947,0,0,0-.092.078.809.809,0,0,0-.2.3.635.635,0,0,1-.034.126.954.954,0,0,0,0,.14.637.637,0,0,0,.058.249v.058l.055.082a.639.639,0,0,0,.334.228.885.885,0,0,0,.263.044,1.654,1.654,0,0,0,.187,0,2.058,2.058,0,0,0,.314-.044,4.443,4.443,0,0,0,.556-.136,8.734,8.734,0,0,0,1.023-.372l.256-.119c.089-.041.181-.1.256-.136l.457-.266.222-.133c.443-.072.886-.136,1.333-.194q1.023-.138,2.045-.256c.682-.078,1.364-.13,2.045-.147h.992a5.831,5.831,0,0,1,.941.109,2.623,2.623,0,0,1,.409.116,1.106,1.106,0,0,1,.293.15.339.339,0,0,1,.061.061.037.037,0,0,1,0,.024h0a.03.03,0,0,1,0,.017h0v-.024a.652.652,0,0,0,1.145.624l.024-.051v-.034l.024-.061a.462.462,0,0,1,.037-.116,1.438,1.438,0,0,0,.041-.242,1.325,1.325,0,0,0,.01-.446ZM904.922,702.75Z" transform="translate(-1300.168 862.517)" fill="#4cc7e9"/>
    <path id="Path_194" data-name="Path 194" d="M904.9,702.462a1.592,1.592,0,0,1-.729-.181,2.137,2.137,0,0,1-1.122-1.892,4.524,4.524,0,0,1,.436-2.107,1.214,1.214,0,0,1,.992-.753,1.7,1.7,0,0,1,1.462.791,3.518,3.518,0,0,1,.46,3.02,1.623,1.623,0,0,1-1.217,1.094A1.551,1.551,0,0,1,904.9,702.462Zm-.32-4.3h-.048a.59.59,0,0,0-.477.382c-.436.917-.713,2.584.4,3.16a.924.924,0,0,0,.6.1h0a.988.988,0,0,0,.736-.682,2.877,2.877,0,0,0-.378-2.454,1.152,1.152,0,0,0-.839-.515Z" transform="translate(-1299.436 860.537)" fill="#4cc7e9"/>
    <path id="Path_195" data-name="Path 195" d="M939.047,702.468a1.614,1.614,0,0,1-.723-.177,2.137,2.137,0,0,1-1.132-1.885,4.531,4.531,0,0,1,.423-2.11,1.21,1.21,0,0,1,.988-.757,1.7,1.7,0,0,1,1.469.781,3.528,3.528,0,0,1,.477,3.017,1.636,1.636,0,0,1-1.214,1.1h0a1.637,1.637,0,0,1-.29.027Zm-.341-4.3h-.051a.586.586,0,0,0-.47.4c-.43.92-.682,2.591.419,3.16a.951.951,0,0,0,.607.092h0a.989.989,0,0,0,.73-.682,2.874,2.874,0,0,0-.392-2.451,1.156,1.156,0,0,0-.835-.528Z" transform="translate(-1321.942 860.531)" fill="#4cc7e9"/>
  </g>
</svg>
